<?xml version="1.0" standalone="no"?><!DOCTYPE svg PUBLIC "-//W3C//DTD SVG 1.1//EN" "http://www.w3.org/Graphics/SVG/1.1/DTD/svg11.dtd"><svg class="icon" height="512" viewBox="0 0 1024 1024" version="1.1" xmlns="http://www.w3.org/2000/svg"><path d="M816.077363 765.186813s-7.139868-1.125275-21.19455-2.813187C719.950769 915.776703 593.582418 1024 501.51244 1024c-95.316396 0-219.546725-106.901099-293.370374-258.852571l-0.225055 0.039384C121.057055 765.186813 50.637363 689.618989 50.637363 596.395604V461.362637c0-92.992703 52.561582-182.243868 127.533011-221.30778C223.164484 96.109714 319.67367 0 501.51244 0c177.348923 0 273.509275 91.434198 319.893098 229.494154C909.12633 260.411077 973.362637 358.574418 973.362637 461.362637v135.032967c0 93.223385-70.419692 168.791209-157.285274 168.791209z m-314.564923 213.802198c80.012659 0 186.69433-90.421451 253.861978-220.666374-51.762637-4.675516-136.332659-10.014945-252.410374-10.014945-128.782066 0-211.726066 6.571604-255.893099 11.517187C313.186462 889.270857 418.495297 978.989011 501.51244 978.989011z m0-933.978022c-145.104176 0-230.169319 71.241143-276.204308 178.11411A171.109275 171.109275 0 0 1 260.349187 219.428571h503.301626c3.493978 0 6.959824 0.118154 10.408791 0.331956C729.178022 113.782154 645.812044 45.010989 501.51244 45.010989z m424.279208 415.631473c0-83.832967-29.257143-147.799209-89.290549-177.647121a167.800967 167.800967 0 0 0-20.885099-8.630857 193.631648 193.631648 0 0 0-1.929846-0.630154q-4.501099-1.462857-9.137231-2.695033c-0.663912-0.174418-1.316571-0.371341-1.98611-0.562638a181.163604 181.163604 0 0 0-11.382154-2.531868 210.375736 210.375736 0 0 0-38.968263-3.505231H271.787604a196.748659 196.748659 0 0 0-65.08589 10.476308q-5.857055 2.042374-11.438417 4.501099l-0.720176 0.32633q-5.283165 2.323692-10.324396 4.97934l-0.523252 0.270066a157.982945 157.982945 0 0 0-20.339341 12.884396C118.226989 331.539692 98.208352 388.782418 98.208352 460.642462V588.518681c0 77.289495 25.819429 120.184967 89.318681 129.659781q6.751648 1.007121 14.004044 1.513494t14.966154 0.483868s89.886945-15.978901 286.877538-15.978901a2831.540044 2831.540044 0 0 1 296.234198 13.812747h0.112528l4.287296 0.478242 0.38822 0.045011 3.426462 0.38822 0.534505 0.06189 2.773802 0.32633 0.438857 0.056263 2.424967 0.292572c2.610637 0.320703 4.017231 0.512 4.017231 0.512 82.915868 0 107.806945-43.418725 107.806945-131.657143V460.642462z m-45.866197-48.33055a16.001407 16.001407 0 0 1-21.942858-4.54611A289.960791 289.960791 0 0 0 776.43956 324.186022a16.001407 16.001407 0 0 1-3.994725-22.061011 16.676571 16.676571 0 0 1 23.276308-4.619253 317.985758 317.985758 0 0 1 89.41433 91.653627 16.676571 16.676571 0 0 1-5.210022 23.152527z m-10.223121 55.093451a23.518242 23.518242 0 0 1-8.282022 31.620219 21.17767 21.17767 0 0 1-29.819781-5.463208 454.549099 454.549099 0 0 0-141.587692-145.132308 21.17767 21.17767 0 0 1-4.720527-29.977319 23.512615 23.512615 0 0 1 31.811516-7.494329 489.877099 489.877099 0 0 1 152.598506 156.446945zM578.706286 810.197802L596.395604 847.973275a189.845099 189.845099 0 0 1-185.670329 0L428.414593 810.197802a153.645011 153.645011 0 0 0 150.291693 0z" /></svg>